<svg width="320" height="62" viewBox="0 0 320 62" fill="none" xmlns="http://www.w3.org/2000/svg">
<g clip-path="url(#clip0_1_2)">
<path d="M95.7895 32.9474L92.8421 21.7895C93.4737 20.5263 93.7895 19.1579 93.7895 17.5789C93.8947 5.47369 71.1579 0 50 0C28.8421 0 6.10526 5.47369 6.10526 17.5789C6.10526 19.0526 6.42105 20.4211 7.05263 21.5789L4.10526 32.9474C1.47368 35.3684 0 38.1053 0 41.3684C0 54.3158 25.1579 61.0526 50 61.0526C74.8421 61.0526 100 54.3158 100 41.3684C100 38.2105 98.4211 35.3684 95.7895 32.9474ZM50 8.21053C73.1579 8.21053 85.6842 14.8421 85.6842 17.5789C85.6842 20.3158 73.1579 27.0526 50 27.0526C26.8421 27.0526 14.3158 20.4211 14.3158 17.6842C14.3158 14.9474 26.8421 8.21053 50 8.21053ZM66.1053 46.9474C66.1053 49.2632 64.2105 51.1579 61.8947 51.1579C59.5789 51.1579 57.6842 49.2632 57.6842 46.9474C57.6842 46.8421 57.7895 46.7368 57.7895 46.6316H42.3158C42.3158 46.7368 42.4211 46.8421 42.4211 46.9474C42.4211 49.2632 40.5263 51.1579 38.2105 51.1579C35.8947 51.1579 34 49.2632 34 46.9474C34 45.3684 34.8421 44.1053 36.1053 43.3684C34.8421 42.6316 34 41.3684 34 39.7895C34 37.4737 35.8947 35.5789 38.2105 35.5789C40.5263 35.5789 42.4211 37.4737 42.4211 39.7895C42.4211 39.8947 42.3158 40 42.3158 40.1053H57.6842C57.6842 40 57.579 39.8947 57.579 39.7895C57.579 37.4737 59.4737 35.5789 61.7895 35.5789C64.1053 35.5789 66 37.4737 66 39.7895C66 41.3684 65.1579 42.6316 63.8947 43.3684C65.1579 44 66.1053 45.3684 66.1053 46.9474Z" fill="url(#paint0_linear_1_2)"/>
<path d="M133.933 16.7513C137.349 16.7513 140.078 17.9483 142.121 20.3424C144.164 22.7364 145.186 25.9765 145.186 30.0622C145.186 33.797 144.204 36.8614 142.241 39.2554C140.278 41.6495 137.636 42.8465 134.316 42.8465C131.061 42.8465 128.587 41.6016 126.895 39.1118H126.799V50.8906H120V17.4216H126.464V20.5818H126.56C128.188 18.0281 130.646 16.7513 133.933 16.7513V16.7513ZM126.56 29.8707C126.56 32.2967 127.071 34.212 128.092 35.6165C129.113 37.021 130.582 37.7232 132.497 37.7232C134.476 37.7232 135.952 37.021 136.926 35.6165C137.9 34.212 138.386 32.2967 138.386 29.8707C138.386 27.3809 137.86 25.4258 136.806 24.0053C135.753 22.5847 134.285 21.8746 132.401 21.8746C130.518 21.8746 129.073 22.5768 128.068 23.9813C127.062 25.3858 126.56 27.3489 126.56 29.8707V29.8707ZM160.699 16.7513C163.029 16.7513 165.104 17.2938 166.924 18.3792C168.743 19.4646 170.172 21.0366 171.209 23.0955C172.246 25.1544 172.765 27.5245 172.765 30.2059C172.765 30.4612 172.749 30.8762 172.717 31.4508H154.858C154.921 33.4299 155.44 34.9701 156.414 36.0713C157.387 37.1726 158.88 37.7232 160.891 37.7232C162.136 37.7232 163.277 37.412 164.314 36.7896C165.352 36.1671 166.014 35.409 166.301 34.5152H172.286C170.531 40.0694 166.668 42.8465 160.699 42.8465C158.433 42.8146 156.334 42.3198 154.403 41.3622C152.471 40.4046 150.931 38.9123 149.782 36.8853C148.633 34.8584 148.058 32.5042 148.058 29.8228C148.058 27.3011 148.641 25.0026 149.806 22.9279C150.971 20.8532 152.519 19.305 154.451 18.2835C156.382 17.2619 158.465 16.7513 160.699 16.7513V16.7513ZM165.918 27.1415C165.599 25.29 165.008 23.9494 164.147 23.1195C163.285 22.2896 162.056 21.8746 160.46 21.8746C158.8 21.8746 157.491 22.3454 156.533 23.287C155.576 24.2287 155.017 25.5135 154.858 27.1415H165.918V27.1415ZM185.358 10L185.358 17.4216H190.338V21.9703H185.358V34.2279C185.358 35.3771 185.549 36.1432 185.933 36.5262C186.316 36.9093 187.082 37.1008 188.231 37.1008C189.061 37.1008 189.763 37.037 190.338 36.9093V42.2241C189.38 42.3837 188.039 42.4635 186.316 42.4635C183.698 42.4635 181.751 42.0166 180.474 41.1228C179.197 40.229 178.559 38.6809 178.559 36.4783V21.9703H174.441V17.4216H178.559V10H185.358H185.358ZM217.055 16.7513C220.375 16.7513 222.969 17.4216 224.836 18.7623C226.703 20.1029 227.749 22.0661 227.972 24.6517H221.508C221.412 23.4706 220.982 22.6167 220.215 22.09C219.449 21.5633 218.332 21.3 216.864 21.3C215.587 21.3 214.637 21.4915 214.015 21.8746C213.392 22.2576 213.081 22.8322 213.081 23.5983C213.081 24.1729 213.289 24.6517 213.704 25.0347C214.119 25.4178 214.749 25.7529 215.595 26.0402C216.441 26.3275 217.375 26.5669 218.396 26.7584C221.492 27.365 223.679 27.9874 224.956 28.6258C226.233 29.2642 227.166 30.0303 227.757 30.9241C228.347 31.8179 228.643 32.9192 228.643 34.2279C228.643 37.005 227.629 39.1357 225.602 40.6201C223.575 42.1044 220.822 42.8465 217.343 42.8465C213.704 42.8465 210.87 42.0645 208.844 40.5004C206.817 38.9362 205.771 36.8135 205.707 34.1322H212.171C212.171 35.409 212.666 36.4226 213.656 37.1726C214.645 37.9227 215.89 38.2978 217.39 38.2978C218.667 38.2978 219.729 38.0185 220.575 37.4599C221.42 36.9013 221.843 36.1271 221.843 35.1377C221.843 34.4993 221.58 33.9726 221.053 33.5576C220.527 33.1426 219.785 32.7755 218.827 32.4563C217.869 32.137 216.385 31.7699 214.374 31.3549C212.778 31.0357 211.357 30.6048 210.113 30.0621C208.868 29.5195 207.918 28.8093 207.264 27.9314C206.609 27.0535 206.282 25.9763 206.282 24.6994C206.282 23.0715 206.673 21.651 207.455 20.438C208.237 19.2251 209.434 18.3073 211.046 17.6848C212.658 17.0624 214.661 16.7512 217.055 16.7512V16.7513ZM241.235 10L241.235 17.4216H246.215V21.9703H241.235V34.2279C241.235 35.3771 241.427 36.1432 241.81 36.5262C242.193 36.9093 242.959 37.1008 244.108 37.1008C244.938 37.1008 245.64 37.037 246.215 36.9093V42.2241C245.257 42.3837 243.917 42.4635 242.193 42.4635C239.575 42.4635 237.628 42.0166 236.351 41.1228C235.075 40.229 234.436 38.6809 234.436 36.4783V21.9703H230.318V17.4216H234.436V10H241.235H241.235ZM261.489 16.7513C265.447 16.7513 268.576 17.9563 270.874 20.3663C273.172 22.7763 274.321 25.9287 274.321 29.8228C274.321 33.7491 273.148 36.9011 270.802 39.2794C268.456 41.6577 265.352 42.8465 261.489 42.8465C257.563 42.8465 254.451 41.6415 252.152 39.2315C249.854 36.8215 248.705 33.6854 248.705 29.8228C248.705 25.8328 249.878 22.6565 252.224 20.2945C254.57 17.9325 257.659 16.7513 261.489 16.7513V16.7513ZM255.504 29.8228C255.504 32.3446 256.015 34.2917 257.036 35.6644C258.058 37.037 259.542 37.7232 261.489 37.7232C263.5 37.7232 265.008 37.021 266.014 35.6165C267.019 34.212 267.522 32.2808 267.522 29.8228C267.522 27.2692 267.003 25.3061 265.966 23.9334C264.929 22.5608 263.42 21.8746 261.441 21.8746C259.526 21.8746 258.058 22.5608 257.036 23.9334C256.015 25.3061 255.504 27.2692 255.504 29.8228V29.8228ZM293.186 16.7513C293.761 16.7513 294.256 16.8311 294.671 16.9907V23.311C293.937 23.1514 293.123 23.0716 292.229 23.0716C287.76 23.0716 285.525 25.721 285.525 31.0199V42.1762H278.726V17.4216H285.19V22.0182H285.286C285.956 20.4222 287.018 19.1453 288.47 18.1877C289.923 17.2301 291.495 16.7513 293.186 16.7513V16.7513ZM307.934 16.7513C310.264 16.7513 312.339 17.2938 314.158 18.3792C315.978 19.4646 317.406 21.0366 318.444 23.0955C319.481 25.1544 320 27.5245 320 30.2059C320 30.4612 319.984 30.8762 319.952 31.4508H302.092C302.156 33.4299 302.675 34.9701 303.649 36.0713C304.622 37.1726 306.114 37.7232 308.125 37.7232C309.37 37.7232 310.511 37.412 311.549 36.7896C312.586 36.1671 313.249 35.409 313.536 34.5152H319.521C317.765 40.0694 313.903 42.8465 307.934 42.8465C305.668 42.8146 303.569 42.3198 301.638 41.3622C299.706 40.4046 298.166 38.9123 297.017 36.8853C295.868 34.8584 295.293 32.5042 295.293 29.8228C295.293 27.3011 295.876 25.0026 297.041 22.9279C298.206 20.8532 299.754 19.305 301.685 18.2835C303.617 17.2619 305.699 16.7513 307.934 16.7513V16.7513ZM313.153 27.1415C312.834 25.29 312.243 23.9494 311.381 23.1195C310.52 22.2896 309.291 21.8746 307.695 21.8746C306.035 21.8746 304.726 22.3454 303.768 23.287C302.811 24.2287 302.252 25.5135 302.092 27.1415H313.153Z" fill="#384259"/>
</g>
<defs>
<linearGradient id="paint0_linear_1_2" x1="0" y1="0" x2="100" y2="0" gradientUnits="userSpaceOnUse">
<stop stop-color="#00FF8F"/>
<stop offset="1" stop-color="#00A1FF"/>
</linearGradient>
<clipPath id="clip0_1_2">
<rect width="320" height="61.0526" fill="white"/>
</clipPath>
</defs>
</svg>
