<svg width="320" height="100" viewBox="0 0 320 100" fill="none" xmlns="http://www.w3.org/2000/svg">
<g clip-path="url(#clip0_1_16)">
<path d="M22.5806 100C17.2436 100 12.9032 95.6597 12.9032 90.3226C12.9032 84.9855 17.2436 80.6452 22.5806 80.6452C27.9177 80.6452 32.2581 84.9855 32.2581 90.3226C32.2581 95.6597 27.9177 100 22.5806 100ZM22.5806 82.2581C18.1339 82.2581 14.5161 85.8758 14.5161 90.3226C14.5161 94.7694 18.1339 98.3871 22.5806 98.3871C27.0274 98.3871 30.6452 94.7694 30.6452 90.3226C30.6452 85.8758 27.0274 82.2581 22.5806 82.2581Z" fill="#4ECCA3"/>
<path d="M79.0323 100C73.6952 100 69.3548 95.6597 69.3548 90.3226C69.3548 84.9855 73.6952 80.6452 79.0323 80.6452C84.3694 80.6452 88.7097 84.9855 88.7097 90.3226C88.7097 95.6597 84.3694 100 79.0323 100ZM79.0323 82.2581C74.5855 82.2581 70.9677 85.8758 70.9677 90.3226C70.9677 94.7694 74.5855 98.3871 79.0323 98.3871C83.479 98.3871 87.0968 94.7694 87.0968 90.3226C87.0968 85.8758 83.479 82.2581 79.0323 82.2581Z" fill="#4ECCA3"/>
<path d="M70.4968 93.5484H31.1161C30.671 93.5484 30.3097 93.1871 30.3097 92.7419C30.3097 92.2968 30.671 91.9355 31.1161 91.9355H70.4968C70.9419 91.9355 71.3032 92.2968 71.3032 92.7419C71.3032 93.1871 70.9419 93.5484 70.4968 93.5484Z" fill="#4ECCA3"/>
<path d="M70.4968 88.7097H31.1161C30.671 88.7097 30.3097 88.3484 30.3097 87.9032C30.3097 87.4581 30.671 87.0968 31.1161 87.0968H70.4968C70.9419 87.0968 71.3032 87.4581 71.3032 87.9032C71.3032 88.3484 70.9419 88.7097 70.4968 88.7097Z" fill="#4ECCA3"/>
<path d="M89.5177 88.7097H87.5677C87.1226 88.7097 86.7613 88.3484 86.7613 87.9032C86.7613 87.4581 87.1226 87.0968 87.5677 87.0968H89.5177C91.7403 87.0968 93.5484 85.2887 93.5484 83.0661V78.2242C93.5484 76.0016 91.7403 74.1936 89.5177 74.1936H54.0323C53.5871 74.1936 53.2258 73.8323 53.2258 73.3871C53.2258 72.9419 53.5871 72.5807 54.0323 72.5807H89.5177C92.6306 72.5807 95.1613 75.1113 95.1613 78.2242V83.0661C95.1613 86.179 92.6306 88.7097 89.5177 88.7097Z" fill="#4ECCA3"/>
<path d="M89.5161 93.5484H87.5677C87.1226 93.5484 86.7613 93.1871 86.7613 92.7419C86.7613 92.2968 87.1226 91.9355 87.5677 91.9355H89.5161C94.4065 91.9355 98.3871 87.9548 98.3871 83.0645V78.2258C98.3871 73.3355 94.4065 69.3548 89.5161 69.3548H23.3952C20.2774 69.3548 17.7419 66.8194 17.7419 63.7016V10.4823C17.7419 5.59194 13.7629 1.6129 8.87258 1.6129H3.22581C2.33548 1.6129 1.6129 2.33548 1.6129 3.22581C1.6129 4.11613 2.33548 4.83871 3.22581 4.83871H8.8629C11.9806 4.83871 14.5161 7.37419 14.5161 10.4919V63.7113C14.5161 68.6016 18.4952 72.5806 23.3855 72.5806H33.0645C33.5097 72.5806 33.871 72.9419 33.871 73.3871C33.871 73.8323 33.5097 74.1935 33.0645 74.1935H23.3855C17.6048 74.1935 12.9032 69.4919 12.9032 63.7113V10.4919C12.9032 8.26452 11.0903 6.45161 8.8629 6.45161H3.22581C1.44677 6.45161 0 5.00484 0 3.22581C0 1.44677 1.44677 0 3.22581 0H8.87258C14.6532 0 19.3548 4.70161 19.3548 10.4823V63.7016C19.3548 65.929 21.1677 67.7419 23.3952 67.7419H89.5161C95.2968 67.7419 100 72.4452 100 78.2258V83.0645C100 88.8452 95.2968 93.5484 89.5161 93.5484Z" fill="#4ECCA3"/>
<path d="M96.7742 17.7419H18.5484C18.1032 17.7419 17.7419 17.3806 17.7419 16.9355V12.0968C17.7419 11.6516 18.1032 11.2903 18.5484 11.2903H96.7742C98.5532 11.2903 100 12.7371 100 14.5161C100 16.2952 98.5532 17.7419 96.7742 17.7419ZM19.3548 16.129H96.7742C97.6645 16.129 98.3871 15.4065 98.3871 14.5161C98.3871 13.6258 97.6645 12.9032 96.7742 12.9032H19.3548V16.129Z" fill="#4ECCA3"/>
<path d="M78.2258 69.3548C78.1387 69.3548 78.0516 69.3403 77.9645 69.3113C77.5419 69.1661 77.3194 68.7081 77.4629 68.2871L94.8387 17.7419H18.5484C18.1032 17.7419 17.7419 17.3806 17.7419 16.9355C17.7419 16.4903 18.1032 16.129 18.5484 16.129H95.9678C96.2274 16.129 96.4726 16.2548 96.6242 16.4677C96.7758 16.679 96.8145 16.9516 96.729 17.1968L78.9871 68.8097C78.8726 69.1452 78.5613 69.3548 78.2258 69.3548Z" fill="#4ECCA3"/>
<path d="M79.8387 40.3226H28.2258C26.8919 40.3226 25.8065 39.2371 25.8065 37.9032C25.8065 36.5694 26.8919 35.4839 28.2258 35.4839H79.8387C81.1726 35.4839 82.2581 36.5694 82.2581 37.9032C82.2581 39.2371 81.1726 40.3226 79.8387 40.3226ZM28.2258 37.0968C27.7823 37.0968 27.4194 37.4597 27.4194 37.9032C27.4194 38.3468 27.7823 38.7097 28.2258 38.7097H79.8387C80.2823 38.7097 80.6452 38.3468 80.6452 37.9032C80.6452 37.4597 80.2823 37.0968 79.8387 37.0968H28.2258Z" fill="#4ECCA3"/>
<path d="M76.6129 50H28.2258C26.8919 50 25.8065 48.9145 25.8065 47.5806C25.8065 46.2468 26.8919 45.1613 28.2258 45.1613H76.6129C77.9468 45.1613 79.0323 46.2468 79.0323 47.5806C79.0323 48.9145 77.9468 50 76.6129 50ZM28.2258 46.7742C27.7823 46.7742 27.4194 47.1371 27.4194 47.5806C27.4194 48.0242 27.7823 48.3871 28.2258 48.3871H76.6129C77.0565 48.3871 77.4194 48.0242 77.4194 47.5806C77.4194 47.1371 77.0565 46.7742 76.6129 46.7742H28.2258Z" fill="#4ECCA3"/>
<path d="M22.5806 93.5484C20.8016 93.5484 19.3548 92.1016 19.3548 90.3226C19.3548 88.5436 20.8016 87.0968 22.5806 87.0968C24.3597 87.0968 25.8065 88.5436 25.8065 90.3226C25.8065 92.1016 24.3597 93.5484 22.5806 93.5484ZM22.5806 88.7097C21.6903 88.7097 20.9677 89.4323 20.9677 90.3226C20.9677 91.2129 21.6903 91.9355 22.5806 91.9355C23.471 91.9355 24.1936 91.2129 24.1936 90.3226C24.1936 89.4323 23.471 88.7097 22.5806 88.7097Z" fill="#4ECCA3"/>
<path d="M79.0323 93.5484C77.2532 93.5484 75.8065 92.1016 75.8065 90.3226C75.8065 88.5436 77.2532 87.0968 79.0323 87.0968C80.8113 87.0968 82.2581 88.5436 82.2581 90.3226C82.2581 92.1016 80.8113 93.5484 79.0323 93.5484ZM79.0323 88.7097C78.1419 88.7097 77.4194 89.4323 77.4194 90.3226C77.4194 91.2129 78.1419 91.9355 79.0323 91.9355C79.9226 91.9355 80.6452 91.2129 80.6452 90.3226C80.6452 89.4323 79.9226 88.7097 79.0323 88.7097Z" fill="#4ECCA3"/>
<path d="M45.9677 74.1936H37.9032C37.4581 74.1936 37.0968 73.8323 37.0968 73.3871C37.0968 72.9419 37.4581 72.5807 37.9032 72.5807H45.9677C46.4129 72.5807 46.7742 72.9419 46.7742 73.3871C46.7742 73.8323 46.4129 74.1936 45.9677 74.1936Z" fill="#4ECCA3"/>
<g filter="url(#filter0_d_1_16)">
<path d="M131.826 54.8744C131.826 53.715 131.44 52.285 127.304 50.1594C123.903 48.3816 120.425 46.5652 120.425 41.8502C120.425 37.4444 124.329 35.087 128.116 35.087C130.937 35.087 132.29 36.0531 133.256 36.0531C133.758 36.0531 134.184 35.8213 134.222 35.3961H136.309L136.657 41.4251L135.382 41.3865C134.57 41.3478 134.106 41.1546 133.681 40.3043C132.56 37.8696 131.053 37.1739 129.739 37.1739C127.884 37.1739 126.841 38.372 126.841 39.7246C126.841 41.657 128.425 42.7778 131.053 43.9758C133.72 45.2899 138.667 47.2222 138.667 52.6328C138.667 58.314 133.449 60.285 130.435 60.285C126.686 60.285 125.295 58.7391 124.019 58.7391C122.821 58.7391 122.667 59.3188 122.589 59.744H120.425L120 53.4058H121.623C122.512 53.4058 122.976 53.5604 123.169 54.256C123.826 56.9614 126.802 58.0048 128.889 58.0048C130.512 58.0048 131.826 56.8841 131.826 54.8744V54.8744ZM162.319 56.3043C162.319 57.2705 163.362 57.5797 164.908 57.7343V59.7053C160.85 59.5894 156.908 59.5894 152.85 59.7053V57.7343C154.319 57.6956 155.401 57.2705 155.401 56.3043V47.1836C155.401 44.7874 155.517 43.087 153.778 43.087C151.768 43.087 149.952 46.4106 149.604 47.5314V56.3043C149.604 57.2705 150.647 57.6956 152.193 57.7343V59.7053C148.174 59.5894 144.193 59.5894 140.174 59.7053V57.7343C141.604 57.5797 142.725 57.2705 142.725 56.3043V39.8019C142.725 38.2174 141.643 37.9469 140.213 38.2174V36.285C144.928 35.2029 147.014 33 148.213 33C149.333 33 149.604 33.5797 149.604 34.7005V41.657L149.14 44.7488C150.261 43.087 152.309 39.9952 156.097 39.9952C158.918 39.9952 162.319 41.1546 162.319 46.7971V56.3043V56.3043ZM176.386 40.0338C180.715 40.0338 186.473 42.6232 186.473 49.8502C186.473 57.1159 180.715 60.0918 176.348 60.0918C172.019 60.0918 166.261 57.1159 166.261 50.1594C166.261 42.6232 172.019 40.0338 176.386 40.0338V40.0338ZM179.169 51.628C179.169 45.6377 177.932 42.0435 175.923 42.0435C174.222 42.0435 173.604 44.7488 173.604 48.5362C173.604 54.372 174.841 58.1208 176.85 58.1208C178.667 58.1208 179.169 55.3768 179.169 51.628ZM202.087 40.0338C205.179 40.0338 210.783 43.4348 210.783 50.7005C210.783 56.8068 204.87 60.4396 201.121 60.4396C199.536 60.4396 198.261 59.7053 197.217 58.6618V61.3285C197.217 62.913 198.3 63.1063 200.116 62.7971V64.9227C195.014 66.0048 191.652 68.0918 190.184 68.0918C189.488 68.0918 189.101 67.7826 189.101 67.2029C189.101 66.0048 190.338 66.4686 190.338 62.4106V46.5266C190.338 44.942 189.256 44.7101 187.826 44.9807V43.0097C192.541 41.9662 194.628 39.7246 195.826 39.7246C196.947 39.7246 197.217 40.3043 197.217 41.4251V41.8116C198.145 40.8841 199.459 40.0338 202.087 40.0338V40.0338ZM201.198 58.5072C203.092 58.5072 203.324 54.9517 203.324 53.0966C203.324 45.9469 201.662 42.2367 199.961 42.2367C198.957 42.2367 198.145 42.8164 197.217 43.7826V54.1014C197.874 57.0773 199.768 58.5072 201.198 58.5072ZM213.488 48.1111H223.923V51.8985H213.488V48.1111ZM238.261 54.8744C238.261 53.715 237.874 52.285 233.739 50.1594C230.338 48.3816 226.86 46.5652 226.86 41.8502C226.86 37.4444 230.763 35.087 234.551 35.087C237.372 35.087 238.725 36.0531 239.691 36.0531C240.193 36.0531 240.618 35.8213 240.657 35.3961H242.744L243.092 41.4251L241.816 41.3865C241.005 41.3478 240.541 41.1546 240.116 40.3043C238.995 37.8696 237.488 37.1739 236.174 37.1739C234.319 37.1739 233.275 38.372 233.275 39.7246C233.275 41.657 234.86 42.7778 237.488 43.9758C240.155 45.2899 245.101 47.2222 245.101 52.6328C245.101 58.314 239.884 60.285 236.87 60.285C233.121 60.285 231.729 58.7391 230.454 58.7391C229.256 58.7391 229.101 59.3188 229.024 59.744H226.86L226.435 53.4058H228.058C228.947 53.4058 229.411 53.5604 229.604 54.256C230.261 56.9614 233.237 58.0048 235.324 58.0048C236.947 58.0048 238.261 56.8841 238.261 54.8744V54.8744ZM259.13 58.7005C258.048 59.5121 256.502 59.9758 254.686 59.9758C250.628 59.9758 248.271 57.7343 248.271 53.2512V42.4686H246.918C246.415 42.4686 246.261 42.2367 246.261 41.7343V41.0773C246.261 40.5749 246.415 40.343 246.918 40.343C250.242 40.343 251.556 37.9855 251.865 35.087H255.188V40.343H258.396C258.899 40.343 259.053 40.5749 259.053 41.0773V41.7343C259.053 42.2367 258.899 42.4686 258.396 42.4686H255.188V53.9855C255.188 55.9952 255.304 57.4638 256.889 57.4638C257.507 57.4638 258.473 57.1546 259.13 56.5749V58.7005ZM270.338 40.0338C274.667 40.0338 280.425 42.6232 280.425 49.8502C280.425 57.1159 274.667 60.0918 270.3 60.0918C265.971 60.0918 260.213 57.1159 260.213 50.1594C260.213 42.6232 265.971 40.0338 270.338 40.0338V40.0338ZM273.121 51.628C273.121 45.6377 271.884 42.0435 269.874 42.0435C268.174 42.0435 267.556 44.7488 267.556 48.5362C267.556 54.372 268.792 58.1208 270.802 58.1208C272.618 58.1208 273.121 55.3768 273.121 51.628ZM297.353 39.9565C299.169 39.9565 300.715 41.1932 300.715 43.1256C300.715 45.2512 298.821 46.0242 297.778 46.0242C296.077 46.0242 295.15 45.1353 294.261 45.1353C291.826 45.1353 291.633 47.8019 291.44 49.0773V56.3043C291.44 57.2705 292.406 57.5797 294.068 57.7343V59.7053C290.087 59.628 286.029 59.628 282.048 59.7053V57.7343C283.44 57.5797 284.483 57.2705 284.483 56.3043V46.5652C284.483 44.9807 283.401 44.7488 281.971 45.0193V43.0483C286.686 42.0048 288.812 39.7246 290.048 39.7246C291.169 39.7246 291.594 40.4589 291.44 41.7343L290.86 45.9469C292.29 41.5411 294.415 39.9565 297.353 39.9565V39.9565ZM318.454 55.1063C319.188 55.1063 319.266 55.8406 318.725 56.6908C317.14 59.0097 315.053 60.0918 311.884 60.0918C306.242 60.0918 301.488 56.5749 301.488 49.8502C301.488 43.2415 306.551 40.0338 311.188 40.0338C316.792 40.0338 320 44.0145 320 47.7246C320 49.7729 319.15 51.1256 316.986 51.1256H308.213C308.367 54.0628 308.715 58.1208 312.734 58.1208C314.899 58.1208 316.097 57.2705 317.101 55.686C317.372 55.2222 317.488 55.1063 318.029 55.1063H318.454ZM313.585 48.6908C313.585 44.5556 313.043 42.0435 311.111 42.0435C309.024 42.0435 308.251 44.5169 308.213 48.6908H313.585Z" fill="#384259"/>
</g>
</g>
<defs>
<filter id="filter0_d_1_16" x="116" y="33" width="208" height="43.0918" filterUnits="userSpaceOnUse" color-interpolation-filters="sRGB">
<feFlood flood-opacity="0" result="BackgroundImageFix"/>
<feColorMatrix in="SourceAlpha" type="matrix" values="0 0 0 0 0 0 0 0 0 0 0 0 0 0 0 0 0 0 127 0" result="hardAlpha"/>
<feOffset dy="4"/>
<feGaussianBlur stdDeviation="2"/>
<feComposite in2="hardAlpha" operator="out"/>
<feColorMatrix type="matrix" values="0 0 0 0 0 0 0 0 0 0 0 0 0 0 0 0 0 0 0.25 0"/>
<feBlend mode="normal" in2="BackgroundImageFix" result="effect1_dropShadow_1_16"/>
<feBlend mode="normal" in="SourceGraphic" in2="effect1_dropShadow_1_16" result="shape"/>
</filter>
<clipPath id="clip0_1_16">
<rect width="320" height="100" fill="white"/>
</clipPath>
</defs>
</svg>
